# xmcd
#
# Track frame offsets: 
#        150
#        18906
#        31109
#        46827
#        65154
#        82020
#        93441
#        112684
#        122256
#        145183
#        161298
#        178931
#        206184
#        222141
#
# Disc length: 3180 seconds
#
# Revision: 1
# Processed by: cddbd v1.5.2PL0 Copyright (c) Steve Scherf et al.
# Submitted via: ExactAudioCopy v0.95b4
#
DISCID=b50c6a0e
DTITLE=Najlepsze biesiadne piosenki - Najlepsze biesiadne piosenki
DYEAR=1900
DGENRE=
TTITLE0=Kareta zlota
TTITLE1=Czerwone ró¿e
TTITLE2=Bando, bando
TTITLE3=O Maryjanno
TTITLE4=O wro¿ko czarodziejko
TTITLE5=Pieni¹¿ki kto ma
TTITLE6=Granica
TTITLE7=Hej, szala³a, szala³a
TTITLE8=Paloma
TTITLE9=We dwoje ³atwiej ¿yæ
TTITLE10=Maryna
TTITLE11=Jarzêbina czerwona
TTITLE12=Cyganeczka Zosia
TTITLE13=Jak d³ugo na Wawelu
EXTD=
EXTT0=
EXTT1=
EXTT2=
EXTT3=
EXTT4=
EXTT5=
EXTT6=
EXTT7=
EXTT8=
EXTT9=
EXTT10=
EXTT11=
EXTT12=
EXTT13=
PLAYORDER=
